<svg id="Layer_1" data-name="Layer 1" xmlns="http://www.w3.org/2000/svg" viewBox="0 0 95.83 95.32"><defs><style>.cls-1{fill:#fff;}</style></defs><circle cx="47.91" cy="47.66" r="46.59"/><path class="cls-1" d="M62.87,29.44a3.31,3.31,0,1,0,3.31,3.31A3.31,3.31,0,0,0,62.87,29.44Z"/><path class="cls-1" d="M48.15,33.69a13.91,13.91,0,1,0,13.91,13.9A13.92,13.92,0,0,0,48.15,33.69Zm0,22.81a8.91,8.91,0,1,1,8.91-8.91A8.91,8.91,0,0,1,48.15,56.5Z"/><path class="cls-1" d="M59.19,75.83H36.64a17,17,0,0,1-17-17V36.32a17,17,0,0,1,17-17H59.19a17,17,0,0,1,17,17V58.87A17,17,0,0,1,59.19,75.83ZM36.64,24.67A11.66,11.66,0,0,0,25,36.32V58.87A11.67,11.67,0,0,0,36.64,70.52H59.19A11.67,11.67,0,0,0,70.84,58.87V36.32A11.66,11.66,0,0,0,59.19,24.67Z"/></svg>