<svg id="Layer_1" data-name="Layer 1" xmlns="http://www.w3.org/2000/svg" viewBox="0 0 95.83 95.32"><defs><style>.cls-1{fill:#fff;}</style></defs><path d="M94.51,47.66a46.6,46.6,0,1,0-53.88,46V61.13H28.81V47.66H40.63V37.39c0-11.67,7-18.12,17.6-18.12a71.62,71.62,0,0,1,10.43.91V31.64H62.79c-5.79,0-7.6,3.6-7.6,7.28v8.74H68.12L66.05,61.13H55.19V93.69A46.61,46.61,0,0,0,94.51,47.66Z"/><path class="cls-1" d="M66.05,61.13l2.07-13.47H55.19V38.92c0-3.68,1.81-7.28,7.6-7.28h5.87V20.18a71.62,71.62,0,0,0-10.43-.91c-10.64,0-17.6,6.45-17.6,18.12V47.66H28.81V61.13H40.63V93.69a47.6,47.6,0,0,0,14.56,0V61.13Z"/></svg>