<svg id="Layer_1" data-name="Layer 1" xmlns="http://www.w3.org/2000/svg" viewBox="0 0 69.7 95.32"><defs><style>.cls-1{fill:#d4c8a5;}</style></defs><path class="cls-1" d="M68.07,46.72a.91.91,0,0,1-1.63-.21,5.28,5.28,0,0,0-1-1.92,19.09,19.09,0,0,1-1.76,8.51,47.69,47.69,0,0,1-.11,7.07c-.36,4.42-1.28,8.82-3.66,12.62a7.65,7.65,0,0,1-2.12,2.53,2.21,2.21,0,0,1-2.11.15,32.4,32.4,0,0,1-9.55,12.81l-.15.26a24.6,24.6,0,0,1-2.59,3.65,5.41,5.41,0,0,1-3.76,2,7,7,0,0,1-4.23-1.83,6.71,6.71,0,0,0-1.79-1.09c-.76-.24-1.37.09-2.12.15-1.59.14-2.72-1.3-3.72-2.32a16.63,16.63,0,0,1-4.24-6l-.26.2c-.91.83-1.58,2.08-3,2-1.65-.1-1.74-1.89-2-3.16-.16-1-.32-2-.45-2.94a17.12,17.12,0,0,1-1.46-3.51,34,34,0,0,1-.5-14.62h0c0-.06,0-.21,0-.22s0-.21,0-.32,0-.51,0-.78c0-.5-.1-1-.18-1.51-.17-1.07-.39-2.13-.61-3.18a13.85,13.85,0,0,1-.08-6.37,9.2,9.2,0,0,1-2-3.38,17.92,17.92,0,0,1-1-8.88,19.82,19.82,0,0,1,3-7.68,5.62,5.62,0,0,1-1.1-3.67,13.53,13.53,0,0,1,2.35-6.19,10.06,10.06,0,0,1,4.21-4.09,9.86,9.86,0,0,1,3.45-3.61c-1.77-.39-3.55-.74-5.34-1A41.43,41.43,0,0,0,8.52,9.81c-1.29.12-2.58.28-3.88.4a2.86,2.86,0,0,1-1,0,3.4,3.4,0,0,1-1.1-.83c-.29-.26-.59-.53-.89-.78A.9.9,0,0,1,2,7.13c1.89-.28,3.79-.5,5.69-.7a55.49,55.49,0,0,1,8.93-.09,44.57,44.57,0,0,1,12.17,2.2,7.46,7.46,0,0,1,1-4.8,6.61,6.61,0,0,1,4.3-2.62A17.4,17.4,0,0,1,39.09.77,17.83,17.83,0,0,1,48.3,4.18a.91.91,0,0,1,.36,1.07,22.17,22.17,0,0,1,10.87,6.43.89.89,0,0,1-.86,1.48L57,12.81a9.55,9.55,0,0,1,1.12,1.4c.19.29.37.6.53.9a10.94,10.94,0,0,1,4,3,23.64,23.64,0,0,1,4.82,8.32,20.66,20.66,0,0,1,.92,10.07A21.35,21.35,0,0,1,69,40.81,12.15,12.15,0,0,1,68.07,46.72Z"/><path d="M19.43,59.47s0,0,0,0h0S19.44,59.47,19.43,59.47Zm0,0s0,0,0,0h0S19.44,59.47,19.43,59.47ZM69,40.81a21.35,21.35,0,0,0-.55-4.28,20.66,20.66,0,0,0-.92-10.07,23.64,23.64,0,0,0-4.82-8.32,10.94,10.94,0,0,0-4-3c-.16-.3-.34-.61-.53-.9A9.55,9.55,0,0,0,57,12.81l1.65.35a.89.89,0,0,0,.86-1.48A22.17,22.17,0,0,0,48.66,5.25a.91.91,0,0,0-.36-1.07A17.83,17.83,0,0,0,39.09.77a17.4,17.4,0,0,0-4.93.35,6.61,6.61,0,0,0-4.3,2.62,7.46,7.46,0,0,0-1,4.8,44.57,44.57,0,0,0-12.17-2.2,55.49,55.49,0,0,0-8.93.09c-1.9.2-3.8.42-5.69.7a.9.9,0,0,0-.4,1.49c.3.25.6.52.89.78a3.4,3.4,0,0,0,1.1.83,2.86,2.86,0,0,0,1,0c1.3-.12,2.59-.28,3.88-.4a41.43,41.43,0,0,1,10.07.38c1.79.27,3.57.62,5.34,1a9.86,9.86,0,0,0-3.45,3.61,10.06,10.06,0,0,0-4.21,4.09,13.53,13.53,0,0,0-2.35,6.19A5.62,5.62,0,0,0,15,28.76a19.82,19.82,0,0,0-3,7.68,17.92,17.92,0,0,0,1,8.88,9.2,9.2,0,0,0,2,3.38,13.85,13.85,0,0,0,.08,6.37c.22,1,.44,2.11.61,3.18.08.5.14,1,.18,1.51q0,.41,0,.78c0,.11,0,.21,0,.32s0,.16,0,.22h0a34,34,0,0,0,.5,14.62,17.12,17.12,0,0,0,1.46,3.51c.13,1,.29,2,.45,2.94.22,1.27.31,3.06,2,3.16,1.42.1,2.09-1.15,3-2l.26-.2a16.63,16.63,0,0,0,4.24,6c1,1,2.13,2.46,3.72,2.32.75-.06,1.36-.39,2.12-.15a6.71,6.71,0,0,1,1.79,1.09,7,7,0,0,0,4.23,1.83,5.41,5.41,0,0,0,3.76-2A24.6,24.6,0,0,0,46,88.54l.15-.26a32.4,32.4,0,0,0,9.55-12.81,2.21,2.21,0,0,0,2.11-.15,7.65,7.65,0,0,0,2.12-2.53c2.38-3.8,3.3-8.2,3.66-12.62a47.69,47.69,0,0,0,.11-7.07,19.09,19.09,0,0,0,1.76-8.51,5.28,5.28,0,0,1,1,1.92.91.91,0,0,0,1.63.21A12.15,12.15,0,0,0,69,40.81ZM58.77,23.25a6.59,6.59,0,0,0,1-3,7.82,7.82,0,0,0-.16-2.6,11.12,11.12,0,0,1,1.55,1.44,22.77,22.77,0,0,1,2.59,3.44,22.32,22.32,0,0,1,3,8.52c.06.41.1.83.13,1.24a10.38,10.38,0,0,0-1.55-2.15,15.27,15.27,0,0,0-4.64-3.46,50.74,50.74,0,0,0-5.82-2.26c-.32-.61-.66-1.22-1-1.82a10.77,10.77,0,0,1,1.86.93,3,3,0,0,0,1.5.65A1.83,1.83,0,0,0,58.77,23.25ZM29.43,77.67a22.35,22.35,0,0,0,1.91-3.54,10.85,10.85,0,0,0,1.6,3.68,7.65,7.65,0,0,0,3,2.66,3.46,3.46,0,0,0,2.93.07,4.36,4.36,0,0,0,2.45,1.6,5,5,0,0,0,1,.14,5.71,5.71,0,0,1-4.82,3.08,6,6,0,0,1-3.58-1.08,8.11,8.11,0,0,1-2.34-3A21.51,21.51,0,0,0,29.43,77.67Zm1.58,6h0A6.22,6.22,0,0,1,29.15,83a4.54,4.54,0,0,1-2.07-2.53,14.82,14.82,0,0,0,1.27-1.36,24.87,24.87,0,0,1,1.78,3.14A14.8,14.8,0,0,0,31,83.71ZM19.63,33.45a11.28,11.28,0,0,1,1-2.23,12.83,12.83,0,0,1,3.06-3.7A16.17,16.17,0,0,0,28.21,32c1,.69,2,1.31,3.08,1.92.34.2.68.39,1,.56a18.13,18.13,0,0,1-3.17,2.24,9,9,0,0,1-5.13,1A10.13,10.13,0,0,1,21.47,37a3.58,3.58,0,0,1-1.81-1.26A2.87,2.87,0,0,1,19.63,33.45Zm-.14-5.69v-.19a3.35,3.35,0,0,1,1.12-2.29,9.77,9.77,0,0,1,1.25-1.16l.29-.19a9.9,9.9,0,0,0,.65,2,15.11,15.11,0,0,0-2.87,3,1.59,1.59,0,0,0-.22-.76c-.05-.1-.13-.19-.19-.29A.89.89,0,0,1,19.49,27.76ZM38.17,78.94c-.59.46-1.64-.12-2.14-.46a6.64,6.64,0,0,1-2-2.26,13.5,13.5,0,0,1-1.48-5.35.72.72,0,0,0-.05-.39c0-.27,0-.54-.07-.81a16.17,16.17,0,0,0,2.45-4.87,5.34,5.34,0,0,0,.72-.28,5.54,5.54,0,0,0,.53-.3,16.15,16.15,0,0,0,2.33,4.2c.22.32.46.65.69,1A28,28,0,0,0,38,76.89,9.39,9.39,0,0,0,38.17,78.94Zm.48-13.52a6.27,6.27,0,0,1-1-2.48c.72-.74,1.36-1.59,2-2.35,1.18-1.48,2.3-3,3.37-4.58a26.05,26.05,0,0,0,2.42,3.08,4.83,4.83,0,0,0,3.81,1.67,5.63,5.63,0,0,0,1-.19,44,44,0,0,1-3.88,8.25c-.4.7-.75,1.45-1.21,2.12-.3.42-.76,1-1.33.86-.74-.11-1.3-.93-1.73-1.46-.59-.72-1.16-1.46-1.69-2.22S39.2,66.34,38.65,65.42Zm.47-7a26.2,26.2,0,0,1-3.42,3.93c-1,.9-2.5,1.32-3.58.27a7.87,7.87,0,0,1-1.23-1.73c-.43-.71-.85-1.44-1.24-2.18a15.68,15.68,0,0,1-1.72-4.77l.86-.46c1.93-1,4.06-2.13,5.28-4a2.67,2.67,0,0,0,.48.08,4.27,4.27,0,0,0,2.55-.83c.3-.2.6-.42.9-.64,1.3,2.14,2.59,4.29,4,6.37C41.06,55.79,40.12,57.12,39.12,58.41Zm-2-11.9a6.1,6.1,0,0,1-1.95,1.18,1.84,1.84,0,0,1-1.75-.48A7.7,7.7,0,0,1,32,45.35c-.46-.73-.9-1.46-1.32-2.2a15.45,15.45,0,0,1-1.77-4.44,19,19,0,0,0,5.69-4l.21-.06a3.06,3.06,0,0,0,.51-.26c2.17,1.52,4.2,3.21,6.41,4.66.5.32,1,.62,1.51.9A28.65,28.65,0,0,1,37.12,46.51Zm5.8-8.79c-2.14-1.37-4.1-3-6.16-4.45l.88-.9a26.41,26.41,0,0,0,2.47-2.81,16.5,16.5,0,0,0,3.22-7.32.39.39,0,0,0,.08-.1,7.36,7.36,0,0,0,.83-1.66,12.62,12.62,0,0,0,5.21,1.23c.67.06,1.32.14,2,.24,2.61,4.26,5.42,9.3,3.12,14.3a16.91,16.91,0,0,1-2,3.23,17.74,17.74,0,0,1-1.19,1.41,2.81,2.81,0,0,0-.29.31s-.11.06-.12.08a3,3,0,0,1-.88-.29A34.07,34.07,0,0,1,42.92,37.72ZM39.4,27.52A26.36,26.36,0,0,1,35,32.44a2.31,2.31,0,0,1-1,.65,2.45,2.45,0,0,1-1.46-.52c-.92-.54-1.83-1.08-2.72-1.65a15.81,15.81,0,0,1-4.53-4.05,7.69,7.69,0,0,1-1.43-6,14,14,0,0,1,.93-1.25c.49-.58,1-1.13,1.55-1.66a23.5,23.5,0,0,0,7.83,4.3,36.64,36.64,0,0,0,4.71,1.23,6.8,6.8,0,0,0,2.24.21A14.75,14.75,0,0,1,39.4,27.52Zm-18.83,11a12.41,12.41,0,0,0-1.13,2.17A30.84,30.84,0,0,0,18,44.87a30.46,30.46,0,0,0-.82,4.34,17.46,17.46,0,0,1,.14-3.89,39,39,0,0,1,2.08-7.4A6.48,6.48,0,0,0,20.57,38.56Zm-1,7.09a29.58,29.58,0,0,1,1.27-3.79c.23-.56.48-1.11.76-1.64a3.66,3.66,0,0,1,.74-1.07l.1,0a11.14,11.14,0,0,0,4.74.07A16.79,16.79,0,0,0,29,43.7c.44.82.93,1.62,1.42,2.41a11.21,11.21,0,0,0,1.65,2.26c.12.11.26.22.39.32-1.21,1.68-3.34,2.58-5.1,3.55a12,12,0,0,0-4.91,4.18A11.06,11.06,0,0,1,19.29,53a.59.59,0,0,0-.14-.23c-.13-.24-.26-.49-.38-.74A27.71,27.71,0,0,1,19.61,45.65Zm2.17,14.18c.11-.35.2-.7.32-1h0l.05-.11c0-.08.08-.16.13-.24l.06,0a.91.91,0,0,0,1.3-.54,6.5,6.5,0,0,1,2.68-3A17.79,17.79,0,0,0,27.8,59c.42.84.88,1.67,1.35,2.47a13.7,13.7,0,0,0,1.48,2.18A4,4,0,0,0,33,64.94a14.88,14.88,0,0,1-1.85,3.56,7.79,7.79,0,0,1-3.62,3.15c-1.56.47-3.06-.56-4.09-1.64a12.71,12.71,0,0,1-2.59-4.07,14.18,14.18,0,0,1-1-4.1,1.72,1.72,0,0,0,.39,0C21.11,61.6,21.53,60.64,21.78,59.83Zm18.78,20a3.19,3.19,0,0,1-.76-2.5,26.17,26.17,0,0,1,.72-6.11,7.72,7.72,0,0,0,2,2,2.75,2.75,0,0,0,2.8,0,5.34,5.34,0,0,0,1.75-2c1-1.77,2-3.53,2.9-5.34a29.65,29.65,0,0,0,2.13-5.3,24.82,24.82,0,0,1,.75,3c.15.79.27,1.59.37,2.4a5.47,5.47,0,0,0,.4,2.12c-1.48,3.45-2.91,7.07-5.65,9.73a8.81,8.81,0,0,1-5,2.73A3.1,3.1,0,0,1,40.56,79.8ZM52.71,56.4a7.54,7.54,0,0,1-1.54,1.75.83.83,0,0,0-.18.13,3.81,3.81,0,0,1-1,.52,2.83,2.83,0,0,1-3-.71,20.19,20.19,0,0,1-2.56-3.2c-1.78-2.57-3.37-5.27-5-7.94.67-.59,1.32-1.2,1.94-1.83a32.63,32.63,0,0,0,3.52-4.33,45.28,45.28,0,0,0,4.75,1.91,2.61,2.61,0,0,0,2.18.15,5.07,5.07,0,0,0,1.41-1.36,20.47,20.47,0,0,0,2.22-3.11,3.06,3.06,0,0,0,.29.21,22,22,0,0,1-1.17,14.49A21.48,21.48,0,0,1,52.71,56.4Zm5.38-37.2a5.38,5.38,0,0,1-.43,2.41,3.81,3.81,0,0,1-.31.56l-.13.2-.38-.21-.73-.46A14.24,14.24,0,0,0,50.38,20c-1.84-.17-4-.16-5.56-1.22.15-.49.29-1,.41-1.48a28.12,28.12,0,0,0,.91-5.3A6.74,6.74,0,0,0,46,10.1a5.9,5.9,0,0,1,2.44.39c1.09.36,2.17.78,3.28,1.08l1.27.32a10.41,10.41,0,0,1,3.1,2.44A8.55,8.55,0,0,1,58.09,19.2ZM54.41,9.65a18.31,18.31,0,0,1,1.51,1.11c-1.37-.3-2.74-.61-4.08-1-2.15-.6-4.36-1.82-6.63-1.36a4.83,4.83,0,0,0-.84-.92,6.56,6.56,0,0,0-1.9-1.09,20.69,20.69,0,0,1,3.34.11A20.07,20.07,0,0,1,54.41,9.65ZM31.25,4.87a4.89,4.89,0,0,1,3.46-2.06,15.89,15.89,0,0,1,8.45.62,15.25,15.25,0,0,1,2.68,1.26l-.16,0a21.15,21.15,0,0,0-4.43,0,9.66,9.66,0,0,0-4.71,1.38,7.74,7.74,0,0,0-2.7,1.33,7.76,7.76,0,0,0-1.72,2.07l-.18.27a.83.83,0,0,0-.13-.48A1.34,1.34,0,0,0,30.6,8.6,6,6,0,0,1,31.25,4.87Zm-.33,7.71c1.4-.18,2.24-1.48,3-2.61A5.27,5.27,0,0,1,37,7.78a.92.92,0,0,0,.25-.06c2.55-.57,6.62,0,7.08,3.16a13.65,13.65,0,0,1-.51,4.57,24.53,24.53,0,0,1-1.34,4.68,3.85,3.85,0,0,1-.95,1.5,2.09,2.09,0,0,1-1.78.19,36.77,36.77,0,0,1-4.29-1.05,22.22,22.22,0,0,1-7.82-4.1A18.48,18.48,0,0,0,30.92,12.58ZM15.74,8.08A53.13,53.13,0,0,1,22,8.69a37.77,37.77,0,0,1,4.8,1.07l-.45.18A75.19,75.19,0,0,0,15.74,8.08Zm5.71,9.36a6.83,6.83,0,0,1,3-4.49,14.6,14.6,0,0,1,3.12-1.6c.56-.21,1.13-.4,1.69-.59l.34-.11a.78.78,0,0,0,.22,0c-1.22,3.45-4.74,5.66-6.91,8.5-.27.36-.5.73-.76,1.09a.72.72,0,0,1-.22.24.16.16,0,0,1-.08-.07.76.76,0,0,1-.12-.19A4.76,4.76,0,0,1,21.45,17.44Zm-4,2.89a11.66,11.66,0,0,1,2.2-2.86,7.26,7.26,0,0,0,.14,2.46,2.85,2.85,0,0,0,1.78,2.25,11.11,11.11,0,0,0-3.22,3,4.65,4.65,0,0,0-.67,2.46A2.57,2.57,0,0,0,18,28.74l0,.06a1.82,1.82,0,0,1-.44-.17,4,4,0,0,1-1-.83,3.43,3.43,0,0,1-.82-2.15C15.59,23.76,16.57,21.93,17.48,20.33Zm.69,8.78a0,0,0,0,1,0,0h0S18.2,29.12,18.17,29.11ZM15.49,45.58c0,.24-.05.46-.07.7A9,9,0,0,1,14.8,45a18.23,18.23,0,0,1-1-3.78,15.69,15.69,0,0,1,1-8A21.77,21.77,0,0,1,16.34,30a4.59,4.59,0,0,0,.57.32,3,3,0,0,0,2,.24c-.87,1.57-1.63,3.51-1.17,5.24a3.28,3.28,0,0,0,.27.7A42,42,0,0,0,15.49,45.58Zm1.17,7.91a5.17,5.17,0,0,0,.59.65.69.69,0,0,0,.24.15c-.07.66-.16,1.32-.29,2-.09-.43-.18-.85-.26-1.26S16.74,54,16.66,53.49Zm.92,19.34c-.13-.78-.23-1.57-.29-2.34a37.52,37.52,0,0,1,.36-8.92v0c.11-.34.22-.69.32-1v.11a15.76,15.76,0,0,0,1.09,5.69A19,19,0,0,0,17.58,72.83Zm1.5-14.64v0c0-.08,0-.16,0-.25,0-.72.05-1.44,0-2.16a13.25,13.25,0,0,0,1.75,1.68,4.5,4.5,0,0,0-.54,1.15c-.1.28-.17.56-.26.84L20,59.7v0c-.07.11-.13.23-.2.33h0a.7.7,0,0,1-.06-.09,4.77,4.77,0,0,1-.24-.44,0,0,0,0,0,0,0h0s0,0,0,0h0a.43.43,0,0,0,0-.05,2.25,2.25,0,0,1-.08-.24,4.1,4.1,0,0,1-.14-.5C19.14,58.51,19.12,58.36,19.08,58.19Zm4.48,22.73-.07,0a15.46,15.46,0,0,0-1.28,1A15.32,15.32,0,0,0,21,83.18c-.11.11-.54.51-.64.37a1.42,1.42,0,0,1-.08-.42c-.07-.37-.13-.74-.19-1.1a42.92,42.92,0,0,1-.83-7.74,20.7,20.7,0,0,1,.82-5.78A15.45,15.45,0,0,0,22,71.06c1.29,1.41,3.15,2.68,5.16,2.47a6,6,0,0,0,3.16-1.48,24.81,24.81,0,0,1-2.15,4.39,13.75,13.75,0,0,1-1.95,2.48,17.59,17.59,0,0,1-2.59,2S23.56,80.91,23.56,80.92Zm21.16,6.3a1.43,1.43,0,0,0-.12.21c-.48.79-1,1.57-1.51,2.33a6.64,6.64,0,0,1-2.56,2.46C39.25,92.75,38,92,37,91.3s-2.29-1.82-3.79-1.92a3.35,3.35,0,0,0-1.09.11,3.12,3.12,0,0,1-.84.16c-.59-.06-1.07-.67-1.45-1.06-1.91-1.92-4-3.9-4.74-6.57l.55-.38a6.32,6.32,0,0,0,2.63,2.92,7.77,7.77,0,0,0,4.5,1l.34.28a7.53,7.53,0,0,0,8.58-.14A7.78,7.78,0,0,0,44.38,82a10.48,10.48,0,0,0,3.45-1.78c.27-.2.51-.43.77-.65A63.7,63.7,0,0,1,44.72,87.22Zm5.73-6c-.52.73-1.06,1.44-1.64,2.12,1.37-2.84,2.57-5.76,3.71-8.71.41-.75.8-1.52,1.17-2.3a5.39,5.39,0,0,0,.66,1.85A35.85,35.85,0,0,1,50.45,81.21Zm4.62-14.82c0-.38-.08-.75-.13-1.13-.1-.77-.22-1.54-.36-2.3a26.38,26.38,0,0,0-1.28-4.43,15.48,15.48,0,0,0,2.17-3.31A24.58,24.58,0,0,0,58,47.15c0-.16,0-.33.06-.5a24.42,24.42,0,0,1,.53,9.21c-.08.64-.24,1.32.24,1.86a1.37,1.37,0,0,0,.29.24,30.93,30.93,0,0,1-2.58,6.41c-.32.6-.66,1.18-1,1.75-.14.21-.26.42-.41.63C55.1,66.63,55.09,66.5,55.07,66.39Zm.12.78h0C55.24,67.16,55.15,67.3,55.19,67.17Zm6.12-3a23.11,23.11,0,0,1-1.75,5.55,18.49,18.49,0,0,1-1.49,2.63,8.73,8.73,0,0,1-.82,1.1c-.18.19-.45.47-.73.4a.8.8,0,0,1-.45-.3L56,73.5a4.89,4.89,0,0,1-.61-1.93,12.1,12.1,0,0,1,0-2.82,1.77,1.77,0,0,0,.54-.29,7.54,7.54,0,0,0,1.38-1.88,32.6,32.6,0,0,0,2.2-4.38,31.48,31.48,0,0,0,1.62-5l.45-.59c.16-.2.29-.42.43-.62A43.81,43.81,0,0,1,61.31,64.22ZM63,50.11a17.1,17.1,0,0,1-1.44,3.42,14.91,14.91,0,0,1-1,1.66s0,.05,0,.08c0-.15,0-.28,0-.42.05-.63.09-1.25.1-1.89a26.51,26.51,0,0,0-.25-4,24.6,24.6,0,0,0-2.25-7.37c-.06-.57-.15-1.14-.25-1.7,1.2.61,2.46,1.14,3.67,1.74a15.64,15.64,0,0,1,2.09,1.2A17.82,17.82,0,0,1,63,50.11Zm4.22-7.19c0,.3-.05.59-.09.89A11.41,11.41,0,0,0,63,40.4c-2.25-1.18-4.78-2-6.72-3.66A10.86,10.86,0,0,0,57,34a12.45,12.45,0,0,0-.16-4.39A16.81,16.81,0,0,0,56,26.68c1,.37,2.1.78,3.12,1.23a16,16,0,0,1,2.3,1.17,16.62,16.62,0,0,1,2.13,1.71A9.73,9.73,0,0,1,66,34.54a19.63,19.63,0,0,1,1.17,8.38Z"/></svg>